# xmcd CD database file
#
# Track frame offsets:
#	150
#	28717
#	60691
#	90747
#	119457
#	151619
#	177929
#	206956
#	233720
#	250045
#
# Disc length: 3760 seconds
#
# Revision: 0
# Processed by: cddbd v1.5.2PL0 Copyright (c) Steve Scherf et al.
# Submitted via: CDex 1.70beta3
#
DISCID=7e0eae0a
DTITLE=Brazilian Trio - Forests
DYEAR=2008
DGENRE=Jazz
TTITLE0=Amor
TTITLE1=Forests
TTITLE2=Samba Alegre
TTITLE3=Montreux
TTITLE4=Pro Zeca
TTITLE5=Tarde
TTITLE6=Ubatuba
TTITLE7=Paraty
TTITLE8=Flying Over Rio
TTITLE9=Vera Cruz
EXTD=YEAR: 2008
EXTT0=
EXTT1=
EXTT2=
EXTT3=
EXTT4=
EXTT5=
EXTT6=
EXTT7=
EXTT8=
EXTT9=
PLAYORDER=
